<svg width="167" height="151" viewBox="0 0 167 151" fill="none" xmlns="http://www.w3.org/2000/svg">
<path d="M165.378 7.69C163.118 2.95 158.458 0 153.208 0H116.868C110.428 0 104.408 2.87 100.358 7.89L80.0377 32.98L60.0177 8.25C58.4377 6.29 56.0577 5.16 53.5477 5.16H13.5077C6.49769 5.16 2.60769 13.29 7.01769 18.73L49.2877 70.92L3.01769 128.07C-0.28231 132.15 -0.92231 137.63 1.32769 142.37C3.58769 147.11 8.24769 150.05 13.4977 150.05H49.8377C56.2777 150.05 62.2977 147.18 66.3477 142.18L86.6677 117.09L106.688 141.82C108.268 143.76 110.648 144.91 113.158 144.91H153.208C160.218 144.91 164.108 136.78 159.698 131.34L117.428 79.13L163.708 21.99C167.008 17.91 167.648 12.43 165.398 7.71L165.378 7.69ZM155.688 15.49L110.778 70.93L80.0277 108.9L58.3377 135.69C56.2477 138.26 53.1477 139.75 49.8377 139.75H13.5077C11.6877 139.75 10.8877 138.47 10.6377 137.93C10.3777 137.39 9.89769 135.97 11.0277 134.56L55.9177 79.12L86.6777 41.17L108.368 14.38C110.458 11.79 113.558 10.32 116.868 10.32H153.208C155.028 10.32 155.828 11.58 156.078 12.13C156.348 12.67 156.818 14.1 155.688 15.5V15.49Z" fill="url(#paint0_linear_9_1212)"/>
<defs>
<linearGradient id="paint0_linear_9_1212" x1="-0.0023098" y1="75.02" x2="166.708" y2="75.02" gradientUnits="userSpaceOnUse">
<stop stop-color="#3A51F1"/>
<stop offset="1" stop-color="#5A6EF5"/>
</linearGradient>
</defs>
</svg>
