<svg width="39" height="39" viewBox="0 0 39 39" fill="none" xmlns="http://www.w3.org/2000/svg">
<rect width="38.8542" height="38.8542" rx="19.4271" fill="#0F172A"/>
<path d="M25.3971 17.147C24.8946 16.592 24.1371 16.2695 23.0871 16.157V15.587C23.0871 14.5595 22.6521 13.5695 21.8871 12.8795C21.1146 12.1745 20.1096 11.8445 19.0671 11.942C17.2746 12.1145 15.7671 13.847 15.7671 15.722V16.157C14.7171 16.2695 13.9596 16.592 13.4571 17.147C12.7296 17.957 12.7521 19.037 12.8346 19.787L13.3596 23.9645C13.5171 25.427 14.1096 26.927 17.3346 26.927H21.5196C24.7446 26.927 25.3371 25.427 25.4946 23.972L26.0196 19.7795C26.1021 19.037 26.1171 17.957 25.3971 17.147ZM19.1721 12.9845C19.9221 12.917 20.6346 13.1495 21.1896 13.652C21.7371 14.147 22.0446 14.852 22.0446 15.587V16.112H16.8096V15.722C16.8096 14.387 17.9121 13.1045 19.1721 12.9845ZM16.7421 20.2895H16.7346C16.3221 20.2895 15.9846 19.952 15.9846 19.5395C15.9846 19.127 16.3221 18.7895 16.7346 18.7895C17.1546 18.7895 17.4921 19.127 17.4921 19.5395C17.4921 19.952 17.1546 20.2895 16.7421 20.2895ZM21.9921 20.2895H21.9846C21.5721 20.2895 21.2346 19.952 21.2346 19.5395C21.2346 19.127 21.5721 18.7895 21.9846 18.7895C22.4046 18.7895 22.7421 19.127 22.7421 19.5395C22.7421 19.952 22.4046 20.2895 21.9921 20.2895Z" fill="white"/>
</svg>
