<svg width="39" height="39" viewBox="0 0 39 39" fill="none" xmlns="http://www.w3.org/2000/svg">
<rect width="38.8542" height="38.8542" rx="19.4271" fill="#8E4AFF"/>
<path d="M19.4269 21.6772C15.6694 21.6772 12.6094 24.1972 12.6094 27.3022C12.6094 27.5122 12.7744 27.6772 12.9844 27.6772H25.8694C26.0794 27.6772 26.2444 27.5122 26.2444 27.3022C26.2444 24.1972 23.1844 21.6772 19.4269 21.6772Z" fill="white"/>
<path d="M22.2093 13.1722C21.5343 12.4072 20.5293 11.9272 19.4268 11.9272C18.3768 11.9272 17.4168 12.3547 16.7343 13.0597C16.0818 13.7347 15.6768 14.6647 15.6768 15.6772C15.6768 16.3822 15.8718 17.0422 16.2243 17.6047C16.4118 17.9272 16.6518 18.2197 16.9368 18.4597C17.5893 19.0597 18.4593 19.4272 19.4268 19.4272C20.7993 19.4272 21.9843 18.6922 22.6368 17.6047C22.8318 17.2822 22.9818 16.9222 23.0643 16.5472C23.1393 16.2697 23.1768 15.9772 23.1768 15.6772C23.1768 14.7172 22.8093 13.8397 22.2093 13.1722ZM20.8293 16.3672H20.1318V17.0947C20.1318 17.4847 19.8168 17.7997 19.4268 17.7997C19.0368 17.7997 18.7218 17.4847 18.7218 17.0947V16.3672H18.0243C17.6343 16.3672 17.3193 16.0522 17.3193 15.6622C17.3193 15.2722 17.6343 14.9572 18.0243 14.9572H18.7218V14.2897C18.7218 13.8997 19.0368 13.5847 19.4268 13.5847C19.8168 13.5847 20.1318 13.8997 20.1318 14.2897V14.9572H20.8293C21.2193 14.9572 21.5343 15.2722 21.5343 15.6622C21.5343 16.0522 21.2193 16.3672 20.8293 16.3672Z" fill="white"/>
</svg>
