<svg width="39" height="39" viewBox="0 0 39 39" fill="none" xmlns="http://www.w3.org/2000/svg">
<rect width="38.8542" height="38.8542" rx="19.4271" fill="#34C759"/>
<path d="M18.1147 17.9497C18.1147 18.3547 18.2272 18.4147 18.4822 18.5047L18.8647 18.6397V17.3647H18.6397C18.3547 17.3647 18.1147 17.6272 18.1147 17.9497Z" fill="white"/>
<path d="M19.9897 21.4898H20.2147C20.5072 21.4898 20.7397 21.2273 20.7397 20.9048C20.7397 20.4998 20.6272 20.4398 20.3722 20.3498L19.9897 20.2148V21.4898Z" fill="white"/>
<path d="M25.1122 14.5372L23.5747 16.0747C23.4622 16.1872 23.3197 16.2397 23.1772 16.2397C23.0347 16.2397 22.8922 16.1872 22.7797 16.0747C22.5622 15.8572 22.5622 15.4972 22.7797 15.2797L24.3172 13.7422C22.9972 12.6172 21.2947 11.9272 19.4272 11.9272C15.2872 11.9272 11.9272 15.2872 11.9272 19.4272C11.9272 23.5672 15.2872 26.9272 19.4272 26.9272C23.5672 26.9272 26.9272 23.5672 26.9272 19.4272C26.9272 17.5597 26.2372 15.8572 25.1122 14.5372ZM20.7397 19.2922C21.2197 19.4647 21.8647 19.8097 21.8647 20.9122C21.8647 21.8497 21.1222 22.6222 20.2147 22.6222H19.9897V22.8097C19.9897 23.1172 19.7347 23.3722 19.4272 23.3722C19.1197 23.3722 18.8647 23.1172 18.8647 22.8097V22.6222H18.8047C17.8072 22.6222 16.9897 21.7822 16.9897 20.7472C16.9897 20.4322 17.2447 20.1772 17.5522 20.1772C17.8597 20.1772 18.1147 20.4322 18.1147 20.7397C18.1147 21.1522 18.4222 21.4897 18.8047 21.4897H18.8647V19.8247L18.1147 19.5622C17.6347 19.3897 16.9897 19.0447 16.9897 17.9422C16.9897 17.0047 17.7322 16.2322 18.6397 16.2322H18.8647V16.0522C18.8647 15.7447 19.1197 15.4897 19.4272 15.4897C19.7347 15.4897 19.9897 15.7447 19.9897 16.0522V16.2397H20.0497C21.0472 16.2397 21.8647 17.0797 21.8647 18.1147C21.8647 18.4222 21.6097 18.6772 21.3022 18.6772C20.9947 18.6772 20.7397 18.4222 20.7397 18.1147C20.7397 17.7022 20.4322 17.3647 20.0497 17.3647H19.9897V19.0297L20.7397 19.2922Z" fill="white"/>
<path d="M27.4447 11.7097C27.3847 11.5747 27.2797 11.4622 27.1372 11.4022C27.0697 11.3797 27.0022 11.3647 26.9272 11.3647H23.9272C23.6197 11.3647 23.3647 11.6197 23.3647 11.9272C23.3647 12.2347 23.6197 12.4897 23.9272 12.4897H25.5697L24.3172 13.7422C24.6022 13.9897 24.8647 14.2522 25.1122 14.5372L26.3647 13.2847V14.9272C26.3647 15.2347 26.6197 15.4897 26.9272 15.4897C27.2347 15.4897 27.4897 15.2347 27.4897 14.9272V11.9272C27.4897 11.8522 27.4747 11.7847 27.4447 11.7097Z" fill="white"/>
</svg>
